<svg width="512" height="512" viewBox="0 0 512 512" fill="none" xmlns="http://www.w3.org/2000/svg">
<path fill-rule="evenodd" clip-rule="evenodd" d="M245.333 266.667C239.675 266.667 234.249 268.914 230.248 272.915C226.248 276.916 224 282.342 224 288C224 293.658 226.248 299.084 230.248 303.085C234.249 307.086 239.675 309.333 245.333 309.333C250.991 309.333 256.417 307.086 260.418 303.085C264.419 299.084 266.667 293.658 266.667 288C266.667 282.342 264.419 276.916 260.418 272.915C256.417 268.914 250.991 266.667 245.333 266.667ZM202.667 288C202.667 276.684 207.162 265.832 215.163 257.83C223.165 249.829 234.017 245.333 245.333 245.333C256.649 245.333 267.502 249.829 275.503 257.83C283.505 265.832 288 276.684 288 288C288 299.316 283.505 310.168 275.503 318.17C267.502 326.171 256.649 330.667 245.333 330.667C234.017 330.667 223.165 326.171 215.163 318.17C207.162 310.168 202.667 299.316 202.667 288Z" fill="black"/>
<path fill-rule="evenodd" clip-rule="evenodd" d="M193.067 373.333H297.6C295.152 361.277 288.611 350.438 279.085 342.652C269.56 334.866 257.636 330.613 245.333 330.613C233.031 330.613 221.107 334.866 211.581 342.652C202.056 350.438 195.515 361.277 193.067 373.333ZM170.667 384C170.667 364.197 178.533 345.205 192.536 331.203C206.539 317.2 225.53 309.333 245.333 309.333C265.136 309.333 284.128 317.2 298.131 331.203C312.133 345.205 320 364.197 320 384C320 386.829 318.876 389.542 316.876 391.543C314.875 393.543 312.162 394.667 309.333 394.667H181.333C178.504 394.667 175.791 393.543 173.791 391.543C171.79 389.542 170.667 386.829 170.667 384Z" fill="black"/>
<path fill-rule="evenodd" clip-rule="evenodd" d="M96 224C96 212.684 100.495 201.832 108.497 193.83C116.498 185.829 127.351 181.333 138.667 181.333H352C363.316 181.333 374.168 185.829 382.17 193.83C390.171 201.832 394.667 212.684 394.667 224V416C394.667 427.316 390.171 438.168 382.17 446.17C374.168 454.171 363.316 458.667 352 458.667H138.667C127.351 458.667 116.498 454.171 108.497 446.17C100.495 438.168 96 427.316 96 416V224ZM138.667 202.667C133.009 202.667 127.583 204.914 123.582 208.915C119.581 212.916 117.333 218.342 117.333 224V416C117.333 421.658 119.581 427.084 123.582 431.085C127.583 435.086 133.009 437.333 138.667 437.333H352C357.658 437.333 363.084 435.086 367.085 431.085C371.086 427.084 373.333 421.658 373.333 416V224C373.333 218.342 371.086 212.916 367.085 208.915C363.084 204.914 357.658 202.667 352 202.667H138.667Z" fill="black"/>
<path fill-rule="evenodd" clip-rule="evenodd" d="M149.333 138.667C149.333 116.035 158.324 94.33 174.327 78.3269C190.33 62.3238 212.035 53.3333 234.667 53.3333H256C278.632 53.3333 300.337 62.3238 316.34 78.3269C332.343 94.33 341.333 116.035 341.333 138.667V192H320V138.667C320 121.693 313.257 105.414 301.255 93.4118C289.253 81.4095 272.974 74.6667 256 74.6667H234.667C217.693 74.6667 201.414 81.4095 189.412 93.4118C177.41 105.414 170.667 121.693 170.667 138.667V192H149.333V138.667Z" fill="black"/>
</svg>
